<?xml version="1.0" encoding="utf-8"?>
<!-- Generator: Adobe Illustrator 27.7.0, SVG Export Plug-In . SVG Version: 6.00 Build 0)  -->
<svg version="1.1" id="Layer_1" xmlns="http://www.w3.org/2000/svg" xmlns:xlink="http://www.w3.org/1999/xlink" x="0px" y="0px"
	 viewBox="0 0 500 500" style="enable-background:new 0 0 500 500;" xml:space="preserve">
<style type="text/css">
	.st0{display:none;}
	.st1{display:inline;fill:#FFFFFF;}
	.st2{fill:#4D4D4D;}
</style>
<g id="BACKGROUND" class="st0">
	<rect class="st1" width="500" height="500"/>
</g>
<g id="OBJECTS">
	<path class="st2" d="M399.5,175.5l-0.2-1.8c-0.2-2.1-1.4-8.7-6.7-15.1c1.2-3.3,2.1-6.8,2.6-10.5c0.7-4.9-0.7-9.9-4-13.7
		c-3.3-3.8-8.1-6-13.1-6c-3,0-6.1,0.8-8.7,2.4c-3.9,2.3-11.9,6.2-22,7.4c0,0-0.2,0-0.4,0c-4.2-1.5-8.6-2.3-13.2-2.3
		c-6.7,0-13.2,1.7-19,4.9c-0.2,0-0.5,0.1-0.7,0.1c0.3-0.6,0.5-0.9,0.5-1c0.4-0.6,0.4-1.4,0-2c-0.4-0.6-1-1-1.7-1
		c-0.1,0-9.1-0.1-14.5-4.6c-1-0.9-2.1-1.6-3.3-2.3c-0.6-1.1-1.4-2.2-2.3-3.2c-3.4-3.9-4.3-9.9-4.5-12.8c0.6-2.8,1-5.7,1-8.6
		c0-4.5-0.8-8.9-2.3-13.2c0-0.2,0-0.3,0-0.3c1.2-10.2,5.2-18.2,7.4-22.1c3.1-5.3,3.1-12,0-17.4c-3.1-5.3-8.7-8.6-14.8-8.6
		c-0.8,0-1.7,0.1-2.5,0.2c-3.7,0.5-7.2,1.4-10.5,2.6c-6.4-5.2-12.9-6.4-15.1-6.7L250,40l-1.8,0.2c-2.1,0.2-8.7,1.4-15.1,6.7
		c-3.3-1.2-6.8-2.1-10.5-2.6c-0.8-0.1-1.7-0.2-2.5-0.2c-6.1,0-11.8,3.3-14.8,8.6c-3.1,5.4-3.1,12,0,17.4c2.3,3.9,6.2,11.9,7.4,22
		c0,0,0,0.2,0,0.4c-1.5,4.2-2.3,8.6-2.3,13.2c0,2.9,0.3,5.7,0.9,8.4c-0.2,2.8-1.1,8.9-4.5,12.9c-0.9,1-1.6,2.1-2.3,3.3
		c-1.1,0.6-2.2,1.4-3.2,2.3c-5.4,4.6-14.4,4.6-14.5,4.6c-0.7,0-1.4,0.4-1.7,1c-0.4,0.6-0.4,1.4,0,2c0,0,0.2,0.4,0.5,0.9
		c-0.2,0-0.4-0.1-0.7-0.1c-5.8-3.2-12.3-4.9-19-4.9c-4.5,0-8.9,0.8-13.2,2.3c-0.2,0-0.3,0-0.3,0c-10.1-1.2-18.2-5.2-22.1-7.4
		c-2.7-1.5-5.7-2.4-8.7-2.4c-5,0-9.8,2.2-13.1,6c-3.2,3.8-4.7,8.7-4,13.7c0.5,3.7,1.4,7.2,2.6,10.5c-5.2,6.4-6.4,12.9-6.7,15.1
		l-0.2,1.8l0.2,1.8c0.2,2.1,1.4,8.7,6.7,15.1c-1.2,3.3-2.1,6.8-2.6,10.5c-0.7,4.9,0.7,9.9,4,13.7c3.3,3.8,8.1,6,13.1,6
		c3.1,0,6.1-0.8,8.7-2.4c3.9-2.3,11.9-6.2,22-7.4c0,0,0.2,0,0.4,0c4.2,1.5,8.6,2.3,13.2,2.3c6.7,0,13.2-1.7,19-4.9
		c0.2,0,0.5-0.1,0.7-0.1c-0.3,0.6-0.5,0.9-0.5,1c-0.4,0.6-0.4,1.4,0,2c0.4,0.6,1,1,1.7,1c0.1,0,9.1,0.1,14.5,4.6
		c1,0.9,2.1,1.6,3.3,2.3c0.6,1.1,1.4,2.2,2.3,3.2c4.6,5.4,4.6,14.4,4.6,14.5c0,0.7,0.4,1.4,1,1.7c0.3,0.2,0.6,0.3,1,0.3
		s0.7-0.1,1-0.3c0,0,0.8-0.4,1.9-1c0,0.3,0,0.7,0,1l-7.4,7.4c-4.2,4.2-6.4,9.7-6.4,15.6s2.3,11.4,6.4,15.6l7,7l-0.1,5
		c-0.2,25-0.6,55.6-0.9,67c-3.1,5.7-4.7,12.1-4.7,18.6c0,4.5,0.8,9,2.3,13.2c0,0.1,0,0.3,0,0.3c-1.2,10.1-5.2,18.2-7.4,22.1
		c-3.1,5.4-3.1,12,0,17.4c3.1,5.3,8.7,8.6,14.8,8.6c0.8,0,1.7-0.1,2.5-0.2c3.7-0.5,7.2-1.4,10.5-2.6c6.4,5.2,12.9,6.4,15.1,6.7
		l1.8,0.2l1.8-0.2c2.1-0.2,8.7-1.4,15.1-6.7c3.3,1.2,6.8,2.1,10.5,2.6c0.8,0.1,1.7,0.2,2.5,0.2c6.1,0,11.8-3.3,14.8-8.6
		c3.1-5.4,3.1-12,0-17.4c-2.3-3.9-6.2-11.9-7.4-22c0,0,0-0.2,0-0.4c1.5-4.2,2.3-8.6,2.3-13.2c0-6.5-1.6-12.9-4.7-18.6
		c-0.3-11.7-0.6-43.7-0.9-67.5l0-4.5l7-7c8.6-8.6,8.6-22.6,0-31.2l-7.4-7.4c0-0.4,0-0.7,0-1.1c1.2,0.5,2,1,2,1
		c0.3,0.2,0.6,0.3,1,0.3s0.7-0.1,1-0.3c0.6-0.4,1-1,1-1.7c0-0.1,0.1-9.1,4.6-14.5c0.9-1,1.6-2.1,2.3-3.3c1.1-0.6,2.2-1.4,3.2-2.3
		c5.4-4.6,14.4-4.6,14.5-4.6c0.7,0,1.4-0.4,1.7-1s0.4-1.4,0-2c0,0-0.2-0.4-0.5-0.9c0.2,0,0.4,0.1,0.7,0.1c5.8,3.2,12.3,4.9,19,4.9
		c4.5,0,9-0.8,13.2-2.3c0.2,0,0.3,0,0.3,0c10.2,1.2,18.2,5.2,22.1,7.4c2.6,1.5,5.7,2.4,8.7,2.4c5,0,9.8-2.2,13.1-6
		c3.2-3.8,4.7-8.7,4-13.7c-0.5-3.7-1.4-7.2-2.6-10.5c5.2-6.4,6.4-12.9,6.7-15.1L399.5,175.5L399.5,175.5z M309.9,210
		c-3.1,0.4-8.1,1.4-12.2,4c0.4-2.3,0.3-4.6,0-6.8c-0.3-1.9-0.9-3.7-1.7-5.3c0.4,0,0.8-0.1,1.2-0.1c1.8-0.2,3.6-0.7,5.3-1.5
		c1.1-0.5,2.3-1.1,3.3-1.8c0.5-0.3,1-0.7,1.5-1.1c0,0.5,0,0.9,0,1.4c0,0.8,0.1,1.6,0.2,2.4c0.1,0.9,0.2,1.7,0.4,2.5
		c0.5,2.1,1.1,4.1,1.8,5.6C309.7,209.6,309.8,209.8,309.9,210L309.9,210z M190.1,210.1c0.1-0.2,0.2-0.5,0.3-0.8
		c0.6-1.5,1.3-3.4,1.7-5.6c0.2-0.8,0.3-1.6,0.4-2.5c0.1-0.8,0.1-1.6,0.2-2.4c0-0.4,0-0.8,0-1.2c0.4,0.4,0.9,0.7,1.4,1
		c1.1,0.7,2.2,1.4,3.3,1.9c1.7,0.8,3.5,1.2,5.2,1.5c0.5,0.1,1,0.1,1.4,0.1c-0.8,1.6-1.4,3.4-1.7,5.2c-0.4,2.2-0.4,4.5,0,6.8
		C198.2,211.4,193.3,210.4,190.1,210.1L190.1,210.1z M190.1,140.9c3.1-0.4,8.1-1.4,12.2-4c-0.4,2.3-0.4,4.6,0,6.8
		c0.3,1.9,0.9,3.7,1.7,5.3c-0.4,0-0.8,0.1-1.2,0.1c-1.8,0.2-3.6,0.7-5.3,1.5c-1.1,0.5-2.3,1.1-3.3,1.8c-0.5,0.4-1,0.7-1.5,1.1
		c0-0.4,0-0.9,0-1.4c0-0.8-0.1-1.6-0.2-2.4c-0.1-0.9-0.2-1.7-0.4-2.5c-0.5-2.1-1.1-4.1-1.8-5.6C190.3,141.4,190.2,141.1,190.1,140.9
		L190.1,140.9z M309.9,140.9c-0.1,0.2-0.2,0.5-0.3,0.8c-0.6,1.5-1.3,3.4-1.7,5.6c-0.2,0.8-0.3,1.6-0.4,2.5c-0.1,0.8-0.1,1.6-0.2,2.4
		c0,0.4,0,0.9,0,1.3c-0.5-0.4-0.9-0.7-1.4-1.1c-1.1-0.7-2.2-1.4-3.3-1.9c-1.7-0.8-3.5-1.2-5.3-1.5c-0.5-0.1-0.9-0.1-1.4-0.1
		c0.8-1.6,1.4-3.4,1.7-5.3c0.4-2.2,0.4-4.5,0-6.8C301.8,139.5,306.7,140.5,309.9,140.9L309.9,140.9z M383.7,209.9
		c-1.4,1.6-3.4,2.5-5.5,2.5c-1.3,0-2.5-0.3-3.7-1c-4.6-2.7-14-7.3-26-8.7l-0.1,0c-0.3,0-1-0.1-2.1-0.2l-0.6-0.1l-0.5,0.2
		c-3.5,1.5-7.3,2.2-11.2,2.2c-5.4,0-10.7-1.5-15.3-4.3l-0.5-0.3l-0.6-0.1c-2-0.2-4.1-0.4-6.2-0.8c-0.1-1.1,0-2.3,0.2-3.4
		c0.1-0.8,0.2-1.5,0.3-2.3c2.2,0.3,4.3,0.6,6.3,0.8l1.9,0.2l1.6,1c3.7,2.3,8,3.5,12.3,3.5c3.1,0,6.2-0.6,9-1.8l1.9-0.8
		c1.1,0.1,3.5,0.3,3.8,0.4c0,0,0.1,0,0.1,0l0.5,0.1c11.5,1.3,20.8,5.4,26.6,8.6c0.8,0.4,1.8,0.4,2.6-0.2c0.8-0.6,1.1-1.5,0.9-2.4
		c-0.6-3.1-1.6-6-2.9-8.6l-2.9-5.7l4.9-4.1c3.2-2.7,4.8-6.2,5.2-8.6c0-0.3,0-0.6,0-0.9c-0.4-2.4-2-5.8-5.2-8.6l-4.9-4.1l2.9-5.7
		c1.3-2.6,2.3-5.5,2.9-8.6c0.2-0.9-0.2-1.9-0.9-2.4c-0.8-0.6-1.8-0.6-2.6-0.2c-5.8,3.2-15.1,7.2-26.5,8.6h-0.1
		c-0.1,0-0.9,0.1-2.3,0.2l-2,0.2l-1.9-0.8c-2.9-1.2-5.9-1.8-9-1.8c-4.4,0-8.6,1.2-12.3,3.5l-1.6,1l-1.9,0.2c-2,0.2-4.1,0.4-6.3,0.8
		c-0.1-0.8-0.2-1.6-0.3-2.3c-0.2-1.1-0.2-2.3-0.2-3.4c2.1-0.3,4.2-0.6,6.3-0.8l0.6-0.1l0.5-0.3c4.6-2.8,9.9-4.3,15.3-4.3
		c3.9,0,7.7,0.8,11.2,2.2l0.5,0.2l0.6-0.1c1.4-0.1,2.2-0.2,2.3-0.2c11.9-1.4,21.4-6.1,26-8.7c1.1-0.6,2.4-1,3.7-1
		c2.1,0,4.1,0.9,5.5,2.5c1.3,1.6,1.9,3.6,1.6,5.6c-0.7,4.6-2,8.8-3.9,12.5l-0.9,1.7l1.4,1.2c4.8,4.1,6.9,9.4,7.3,12.7l0.1,0.6
		l-0.1,0.6c-0.4,3.3-2.5,8.7-7.3,12.8l-1.4,1.2l0.9,1.7c1.9,3.7,3.2,7.9,3.9,12.5C385.7,206.2,385.1,208.3,383.7,209.9L383.7,209.9z
		 M283.3,219.3c-1.9-0.2-3.7-0.8-5.3-1.6c-0.8-0.4-1.6-0.9-2.2-1.4l-0.2-0.3l-2.4-4.2l-5.8-10l-3.4-5.8c2.5-1.7,4.7-3.9,6.4-6.4
		l2.6,1.5l6.1,3.5l4.5,2.6l5.6,3.3l1.6,0.9c1.1,1.4,2,3.1,2.5,5.1c0.9,3.4,0.8,7.4-1.1,11.2C289.3,219.3,286.2,219.7,283.3,219.3
		L283.3,219.3z M273.4,243.5v1l10.3,10.3c4.7,4.7,4.7,12.3,0,17l-10,10l0.1,8.7c0.2,25.2,0.6,59.8,0.9,69.6l0,0.6l0.3,0.5
		c2.8,4.6,4.3,9.8,4.3,15.2c0,3.9-0.8,7.6-2.2,11.2l-0.2,0.5l0.1,0.6c0.1,1.2,0.2,2,0.2,2.2v0.1c1.4,11.9,6.1,21.4,8.7,26
		c1.3,2.2,1.3,5,0,7.3c-1.5,2.5-4.3,3.9-7.2,3.5c-4.6-0.7-8.8-2-12.5-3.9l-1.7-0.9l-1.2,1.4c-4.1,4.8-9.4,6.9-12.7,7.3l-0.6,0.1
		l-0.6-0.1c-3.3-0.4-8.7-2.5-12.7-7.3l-1.2-1.4l-1.7,0.9c-3.7,1.9-7.9,3.2-12.5,3.9c-0.3,0-0.7,0.1-1,0.1c-2.5,0-4.9-1.4-6.1-3.6
		c-1.3-2.3-1.3-5.1,0-7.3c2.7-4.6,7.3-14,8.7-26l0.1-1.1h0c0-0.3,0.1-0.7,0.1-1.2l0.1-0.6l-0.2-0.5c-1.5-3.5-2.2-7.3-2.2-11.2
		c0-5.4,1.5-10.6,4.3-15.2l0.3-0.5l0-0.6c0.3-9.6,0.7-42.6,0.9-69.1l0.1-9.2l-10-10c-2.3-2.3-3.5-5.3-3.5-8.5s1.2-6.2,3.5-8.5
		l10.3-10.3v-1c0-2,0-4.3,0.1-6.7c1,0,1.9,0,2.9,0.2c1,0.2,1.9,0.3,2.9,0.3c0,2.2,0,4.4,0,6.2l0,3.3l-12,12
		c-1.6,1.6-1.8,3.5-1.8,4.4s0.2,2.8,1.8,4.4l11.7,11.7l-0.1,11.6c-0.3,26.6-0.6,59.6-0.9,69.3l-0.1,2.1l-1.1,1.8
		c-2.2,3.7-3.4,7.9-3.4,12.2c0,3.1,0.6,6.2,1.8,9l0.8,1.9l-0.4,4.1l0,0.3c-1.3,11.5-5.4,20.8-8.6,26.6c-0.4,0.8-0.4,1.8,0.2,2.6
		c0.6,0.8,1.5,1.1,2.4,0.9c3.1-0.6,6-1.6,8.6-2.9l5.7-2.9l4.1,4.9c2.7,3.2,6.2,4.8,8.6,5.2c0.1,0,0.3,0,0.4,0s0.3,0,0.4,0
		c2.3-0.4,5.8-2,8.6-5.2l4.1-4.9l5.7,2.9c2.6,1.3,5.5,2.3,8.6,2.9c0.9,0.2,1.9-0.2,2.4-0.9c0.5-0.8,0.6-1.8,0.2-2.6
		c-3.2-5.8-7.2-15.1-8.5-26.6l0-0.2c0-0.3-0.1-1-0.2-2.2l-0.2-2l0.8-1.9c1.2-2.9,1.8-5.9,1.8-9c0-4.3-1.2-8.6-3.4-12.2l-1.1-1.8
		l-0.1-2.1c-0.3-10-0.7-44.5-0.9-69.8l-0.1-11.1l11.7-11.7c1.6-1.6,1.8-3.5,1.8-4.4s-0.2-2.8-1.8-4.4l-12-12l0-3.3c0-1.9,0-4,0-6.2
		c1-0.1,1.9-0.2,2.9-0.3c0.9-0.2,1.9-0.2,2.8-0.2C273.4,239.1,273.4,241.4,273.4,243.5L273.4,243.5z M207.7,217.8
		c-1.9-3.9-2.1-7.9-1.1-11.3c0.6-2,1.5-3.8,2.6-5.2l1.4-0.8l5.6-3.3l4.5-2.6l6.1-3.5l2.7-1.5c1.7,2.5,3.9,4.6,6.4,6.4l-3.4,5.8
		l-5.8,10l-2.4,4.2l-0.3,0.5c-0.6,0.5-1.3,0.9-2.1,1.4c-1.5,0.8-3.3,1.4-5.3,1.6C213.8,219.7,210.7,219.3,207.7,217.8L207.7,217.8z
		 M181.9,200.2l-0.5,0.3c-4.6,2.8-9.9,4.3-15.3,4.3c-3.9,0-7.7-0.8-11.2-2.2l-0.6-0.2l-0.6,0.1c-1.4,0.1-2.2,0.2-2.3,0.2
		c-11.9,1.4-21.4,6.1-25.9,8.7c-1.1,0.6-2.4,1-3.7,1c-2.1,0-4.1-0.9-5.5-2.5c-1.3-1.6-1.9-3.6-1.6-5.6c0.7-4.6,2-8.8,3.9-12.5
		l0.8-1.7l-1.4-1.2c-4.8-4.1-6.9-9.4-7.3-12.8l-0.1-0.6l0.1-0.6c0.4-3.3,2.5-8.7,7.3-12.7l1.4-1.2l-0.8-1.7
		c-1.9-3.7-3.2-7.9-3.9-12.5c-0.3-2,0.3-4.1,1.6-5.6c1.4-1.6,3.4-2.5,5.5-2.5c1.3,0,2.6,0.3,3.7,1c4.6,2.7,14,7.3,26,8.7l0.1,0
		c0.3,0,1,0.1,2.1,0.2l0.6,0.1l0.6-0.2c3.6-1.5,7.3-2.2,11.2-2.2c5.4,0,10.7,1.5,15.3,4.3l0.5,0.3l0.6,0.1c2,0.2,4.1,0.4,6.2,0.8
		c0.1,1.1,0,2.3-0.2,3.4c-0.1,0.8-0.2,1.5-0.3,2.3c-2.2-0.3-4.3-0.6-6.3-0.8l-1.9-0.2l-1.6-1c-3.7-2.3-8-3.5-12.3-3.5
		c-3.1,0-6.2,0.6-9,1.8l-1.9,0.8c-1.1-0.1-3.5-0.3-3.8-0.4c0,0-0.1,0-0.1,0l-0.5-0.1c-11.5-1.3-20.8-5.4-26.6-8.6
		c-0.8-0.4-1.8-0.4-2.6,0.2c-0.8,0.6-1.1,1.5-0.9,2.4c0.6,3.1,1.6,6,2.9,8.6l2.9,5.7l-4.9,4.1c-3.2,2.7-4.8,6.2-5.2,8.6
		c-0.1,0.3-0.1,0.6,0,0.9c0.4,2.3,2,5.8,5.2,8.6l4.9,4.1l-2.9,5.7c-1.3,2.6-2.3,5.5-2.9,8.6c-0.2,0.9,0.2,1.9,0.9,2.4
		c0.8,0.6,1.8,0.6,2.6,0.2c5.8-3.2,15.1-7.2,26.5-8.6h0.1c0.1,0,0.9-0.1,2.3-0.2l2-0.2l1.9,0.8c2.9,1.2,5.9,1.8,9,1.8
		c4.4,0,8.6-1.2,12.3-3.5l1.6-1l1.9-0.2c2-0.2,4.1-0.4,6.3-0.8c0.1,0.8,0.2,1.6,0.3,2.3c0.2,1.1,0.2,2.3,0.2,3.4
		c-2.1,0.3-4.2,0.6-6.3,0.8L181.9,200.2L181.9,200.2z M215.8,131.5c1.9,0.1,3.8,0.6,5.3,1.3c0.9,0.4,1.7,0.9,2.5,1.4
		c0.2,0.1,0.4,0.3,0.6,0.4l2,3.4l6.1,10.6l3.6,6.2c-2.5,1.7-4.7,3.9-6.4,6.4l-2.8-1.6l-6-3.5l-4.4-2.5l-5.6-3.3l-1.5-0.9
		c-1.1-1.4-2-3.1-2.5-5.1c-0.9-3.4-0.8-7.4,1.1-11.2C210.4,131.8,213.2,131.3,215.8,131.5L215.8,131.5z M250,50.1l0.6,0.1
		c3.3,0.4,8.7,2.5,12.7,7.3l1.2,1.4l1.7-0.8c3.7-1.9,7.9-3.2,12.5-3.9c2.9-0.4,5.7,1,7.2,3.5c1.3,2.3,1.3,5.1,0,7.3
		c-2.7,4.6-7.3,14-8.7,26c0,0-0.1,0.8-0.2,2.2l-0.1,0.6l0.2,0.6c1.5,3.6,2.2,7.3,2.2,11.2c0,2.7-0.4,5.4-1.1,7.9
		c-2,0.5-4.1,0.8-6.3,0.7c1.1-2.7,1.6-5.6,1.6-8.6c0-3.1-0.6-6.2-1.8-9l-0.8-1.9l0.4-3.7c0-0.2,0-0.4,0.1-0.6c0-0.1,0-0.2,0-0.4
		c1.4-11.3,5.4-20.6,8.5-26.3c0.4-0.8,0.4-1.8-0.2-2.6c-0.5-0.8-1.5-1.1-2.4-0.9c-3.1,0.6-6,1.6-8.6,2.9l-5.7,2.9l-4.1-4.9
		c-2.7-3.2-6.2-4.8-8.6-5.2c-0.3,0-0.6,0-0.9,0c-2.3,0.4-5.8,2-8.6,5.2l-4.1,4.9l-5.7-2.9c-2.6-1.3-5.5-2.3-8.6-2.9
		c-0.9-0.2-1.9,0.2-2.4,0.9c-0.6,0.8-0.6,1.8-0.2,2.6c3.2,5.8,7.2,15.1,8.6,26.6v0.1c0,0.2,0.1,1,0.2,2.3l0.2,2l-0.8,1.9
		c-1.2,2.8-1.8,5.9-1.8,9s0.6,5.9,1.6,8.6c-2.1,0.2-4.3-0.2-6.3-0.6c-0.7-2.6-1.1-5.3-1.1-8c0-3.9,0.8-7.7,2.2-11.2l0.2-0.6
		l-0.1-0.6c-0.1-1.4-0.2-2.2-0.2-2.3c-1.4-11.9-6.1-21.4-8.7-25.9c-1.3-2.2-1.3-5,0-7.3c1.4-2.5,4.3-3.9,7.2-3.5
		c4.6,0.7,8.8,2,12.5,3.9l1.7,0.8l1.2-1.4c4.1-4.8,9.4-6.9,12.8-7.3L250,50.1L250,50.1z M292.3,133.1c2,3.9,2.1,7.9,1.1,11.3
		c-0.6,2-1.5,3.8-2.6,5.2l-1.4,0.8l-5.6,3.3l-4.4,2.5l-6,3.5l-2.8,1.6c-1.7-2.5-3.9-4.7-6.4-6.4l3.5-6.1l6.1-10.6l2-3.5
		c0.2-0.1,0.3-0.3,0.5-0.4c0.7-0.5,1.6-1,2.5-1.4c1.6-0.7,3.4-1.2,5.3-1.3C286.8,131.3,289.6,131.8,292.3,133.1L292.3,133.1z
		 M372.1,154.5l-3.8,7.4c0,0.1,0,0.1-0.1,0.2c-0.1,0.1-0.1,0.2-0.2,0.3c-0.2,0.3-0.4,0.5-0.7,0.8c-0.5,0.5-1,1-1.6,1.5
		c-1.2,0.9-2.5,1.7-4,2.3c-1.4,0.6-3,1.1-4.6,1.5c-0.8,0.2-1.6,0.3-2.4,0.5l-2.5,0.3l2.5,0.3c0.8,0,1.7,0.1,2.5,0.1
		c1.7,0,3.4-0.1,5.1-0.4c1.7-0.3,3.4-0.8,5.1-1.5c0.8-0.4,1.7-0.8,2.5-1.3c0.1-0.1,0.3-0.2,0.4-0.3l4.8,4.1c2.1,1.8,3.2,4.1,3.5,5.4
		c-0.4,1.3-1.4,3.5-3.5,5.4l-4.8,4.1c-0.1-0.1-0.3-0.2-0.4-0.3c-0.8-0.5-1.6-0.9-2.5-1.3c-1.7-0.7-3.4-1.2-5.1-1.5
		c-1.7-0.3-3.4-0.4-5.1-0.4c-0.8,0-1.7,0.1-2.5,0.1l-2.5,0.3l2.5,0.3c0.8,0.2,1.6,0.3,2.4,0.5c1.6,0.4,3.1,0.8,4.6,1.5
		c1.4,0.6,2.8,1.4,4,2.3c0.6,0.5,1.1,0.9,1.6,1.5c0.2,0.2,0.5,0.5,0.7,0.8c0.1,0.1,0.1,0.2,0.2,0.3c0,0.1,0,0.1,0.1,0.2l3.8,7.4
		c0.4,0.8,0.7,1.6,1.1,2.4c-6-2.8-14-5.5-23.4-6.6l-0.6-0.1c0,0-0.1,0-0.2,0c-0.7-0.1-4.3-0.4-4.3-0.4c-0.4,0-0.8,0-1.1,0.2l-2.4,1
		c-2.3,0.9-4.7,1.4-7.2,1.4c-3.5,0-6.9-1-9.8-2.8l-2.1-1.3c-0.3-0.2-0.7-0.3-1-0.4l-2.5-0.2c-1.7-0.1-3.4-0.4-5.2-0.6
		c0.1-0.2,0.2-0.4,0.3-0.7c1.1-3.1,3.5-5.8,5.7-7.8c2.6-0.2,5.3-0.4,7.9-0.6c1.5,2.2,3.9,3.6,6.7,3.6c3.4,0,6.3-2.1,7.5-5
		c2.5-0.3,5-0.6,7.6-0.9c4.7-0.6,9.4-1.3,14.1-2.1c-4.7-0.9-9.4-1.5-14.1-2.1c-2.5-0.3-5-0.6-7.6-0.9c-1.2-2.9-4.1-5-7.5-5
		c-2.8,0-5.3,1.4-6.7,3.6c-2.6-0.2-5.3-0.4-7.9-0.6c-2.2-2-4.6-4.7-5.7-7.8c-0.1-0.2-0.2-0.4-0.3-0.6c1.8-0.3,3.6-0.5,5.2-0.6
		l2.5-0.2c0.4,0,0.7-0.1,1-0.4l2.1-1.3c2.9-1.8,6.3-2.8,9.8-2.8c2.5,0,4.9,0.5,7.2,1.4l2.4,1c0.4,0.1,0.8,0.2,1.1,0.2l2.6-0.3
		c1.4-0.1,2.2-0.2,2.4-0.2h0.1c9.3-1.1,17.3-3.9,23.4-6.6C372.8,152.9,372.5,153.7,372.1,154.5L372.1,154.5z M299.2,197.4
		c-2.2,0.7-4.5,0.8-6.4,0.5l-4-2.3l-11.1-6.4l-5.1-2.9c0-0.1,0.1-0.2,0.2-0.3c0.5-1,0.9-2,1.2-3c0.5-1.7,0.9-3.5,1-5.4h23.5
		c2,0.8,4,2.2,5.6,4.1c1.5,1.8,2.7,4,3.3,6.5c0.2,0.9,0.4,1.8,0.4,2.8c-0.5,0.7-0.9,1.3-1.5,1.9
		C304.3,195.1,301.8,196.6,299.2,197.4L299.2,197.4z M267.6,231.6c-0.6,0.6-1.3,1.1-2.1,1.6c-0.9-0.1-1.8-0.2-2.7-0.4
		c-2-0.4-3.7-1.2-5.2-2.3c-2.8-1.9-4.7-4.4-5.6-6.9v-23.5c1.8-0.1,3.6-0.5,5.3-1c1.2-0.4,2.3-0.8,3.4-1.3l2,3.5l4.8,8.3l5,8.6
		C273.1,222.5,271.7,227.8,267.6,231.6L267.6,231.6z M263.3,290.5c0.2,25.3,0.6,59.8,0.9,69.9l0.1,2.8c0,0.4,0.1,0.8,0.4,1.2
		l1.4,2.4c1.8,2.9,2.7,6.3,2.7,9.8c0,2.5-0.5,4.9-1.4,7.2l-1,2.4c-0.1,0.4-0.2,0.8-0.2,1.1l0.3,2.6c0.1,1.2,0.2,2,0.2,2.3l0,0.2
		c1.1,9.3,3.9,17.3,6.6,23.4c-0.8-0.3-1.6-0.7-2.4-1.1l-6.8-3.4l-0.2-0.3c-0.2-0.5-0.5-0.9-0.7-1.4c-0.5-0.9-0.9-1.9-1.3-2.9
		c-0.8-2-1.4-4.1-2-6.2c-0.6-2.1-1-4.3-1.4-6.5c-0.2-1.1-0.3-2.2-0.5-3.3l-0.4-3.3l-0.2,3.3c0,1.1-0.1,2.2-0.1,3.4
		c0,2.2,0,4.5,0.2,6.7c0.2,2.3,0.4,4.5,0.9,6.8c0.2,1.1,0.5,2.3,0.8,3.4c0.1,0.5,0.3,1,0.5,1.5l-4.5,5.3c-1.8,2.1-4.1,3.2-5.4,3.5
		c-1.3-0.4-3.5-1.4-5.4-3.5l-5-5.9c0.1-0.3,0.2-0.6,0.3-0.9c0.3-1.1,0.6-2.3,0.8-3.4c0.4-2.3,0.7-4.5,0.9-6.8
		c0.2-2.3,0.2-4.5,0.2-6.7c0-1.1-0.1-2.2-0.1-3.4l-0.2-3.3l-0.4,3.3c-0.2,1.1-0.3,2.2-0.5,3.3c-0.4,2.2-0.8,4.3-1.4,6.5
		c-0.6,2.1-1.2,4.2-2,6.2c-0.4,1-0.8,2-1.3,2.9c-0.2,0.5-0.5,0.9-0.7,1.4l-0.4,0.6c0,0-0.1,0.1-0.1,0.2l-5.8,2.9
		c-0.8,0.4-1.6,0.7-2.4,1.1c2.8-6,5.5-14,6.6-23.4l0.5-5.1c0-0.4,0-0.8-0.2-1.1l-1-2.4c-0.9-2.3-1.4-4.7-1.4-7.2
		c0-3.5,0.9-6.8,2.7-9.8l1.4-2.4c0.2-0.4,0.3-0.8,0.4-1.2l0.1-2.8c0.3-9.7,0.7-42.8,0.9-69.4l0.1-12.6c0-0.6-0.2-1.3-0.7-1.7
		l-12.4-12.4c-0.4-0.4-0.4-0.8-0.4-1s0.1-0.7,0.4-1l12.7-12.7c0.4-0.4,0.7-1.1,0.7-1.7l0-4.3c0-1.4,0-2.9,0-4.6
		c1.9,0.7,3.7,1.9,5.2,3.2c0,2.8,0,5.6,0,8.5l-6.8,6.8c-3.2,3.2-3.2,8.5,0,11.7l7,7c0.3,17,0.7,34,1.4,51
		c0.5,12.7,1.1,25.4,1.9,38.1c-3.6,1.6-6.2,5.2-6.2,9.4c0,4.7,3.2,8.7,7.5,9.9c0.7,9.5,1.6,19.1,2.7,28.6c1.1-9.5,2-19.1,2.7-28.6
		c4.4-1.2,7.6-5.2,7.6-9.9c0-4.2-2.6-7.9-6.3-9.5c0.8-12.7,1.4-25.4,1.9-38.1c0.7-17,1.1-34,1.4-51l7-7c3.2-3.2,3.2-8.5,0-11.7
		l-6.8-6.8c0-2.8,0-5.6,0-8.4c1.5-1.3,3.3-2.5,5.2-3.2c0,1.6,0,3.1,0,4.5l0,4.3c0,0.6,0.3,1.2,0.7,1.7l12.7,12.7
		c0.4,0.4,0.4,0.8,0.4,1s-0.1,0.7-0.4,1l-12.4,12.4c-0.5,0.5-0.7,1.1-0.7,1.7L263.3,290.5L263.3,290.5z M193.6,192.8
		c-0.5-0.6-1-1.2-1.4-1.8c0.1-1,0.2-1.9,0.4-2.9c0.6-2.6,1.8-4.8,3.4-6.5c1.7-2,3.7-3.4,5.7-4.2h23.5c0.1,1.8,0.5,3.6,1,5.4
		c0.3,1.1,0.7,2.1,1.2,3.1c0,0.1,0.1,0.1,0.1,0.2l-5.1,3l-11.2,6.4L207,198c-1.9,0.3-4.1,0.1-6.4-0.6
		C198.2,196.6,195.6,195.1,193.6,192.8L193.6,192.8z M127.9,196.5l3.8-7.4c0-0.1,0.1-0.1,0.1-0.2c0.1-0.1,0.1-0.2,0.2-0.3
		c0.2-0.3,0.4-0.5,0.7-0.8c0.5-0.5,1-1,1.6-1.5c1.2-0.9,2.5-1.7,4-2.3c1.4-0.6,3-1.1,4.6-1.5c0.8-0.2,1.6-0.3,2.4-0.5l2.5-0.3
		l-2.5-0.3c-0.8,0-1.7-0.1-2.5-0.1c-1.7,0-3.4,0.1-5.1,0.4c-1.7,0.3-3.4,0.8-5.1,1.5c-0.8,0.4-1.7,0.8-2.4,1.3
		c-0.1,0.1-0.3,0.2-0.4,0.3l-4.8-4.1c-2.2-1.8-3.2-4.1-3.5-5.4c0.3-1.3,1.4-3.5,3.5-5.4l4.8-4.1c0.1,0.1,0.3,0.2,0.4,0.3
		c0.8,0.5,1.6,0.9,2.4,1.3c1.7,0.7,3.4,1.2,5.1,1.5c1.7,0.3,3.4,0.4,5.1,0.4c0.8,0,1.7-0.1,2.5-0.1l2.5-0.3l-2.5-0.3
		c-0.8-0.2-1.6-0.3-2.4-0.5c-1.6-0.4-3.1-0.8-4.6-1.5c-1.4-0.6-2.8-1.4-4-2.3c-0.6-0.5-1.1-0.9-1.6-1.5c-0.2-0.2-0.5-0.5-0.7-0.8
		c-0.1-0.1-0.1-0.2-0.2-0.3c0-0.1-0.1-0.1-0.1-0.2l-3.8-7.4c-0.4-0.8-0.7-1.6-1.1-2.4c6,2.8,14,5.5,23.4,6.6l0.6,0.1
		c0,0,0.1,0,0.2,0c0.7,0.1,4.3,0.4,4.3,0.4c0.4,0,0.8,0,1.1-0.2l2.4-1c2.3-0.9,4.7-1.4,7.2-1.4c3.5,0,6.9,1,9.8,2.8l2.1,1.3
		c0.3,0.2,0.7,0.3,1,0.3l2.5,0.2c1.7,0.1,3.4,0.4,5.2,0.6c-0.1,0.2-0.2,0.4-0.3,0.7c-1.1,3.2-3.5,5.9-5.7,7.8
		c-2.6,0.2-5.3,0.4-7.9,0.6c-1.4-2.2-3.9-3.6-6.7-3.6c-3.4,0-6.3,2.1-7.5,5c-2.6,0.3-5.1,0.6-7.7,0.9c-4.7,0.6-9.4,1.3-14.1,2.1
		c4.7,0.9,9.4,1.5,14.1,2.1c2.6,0.3,5.1,0.6,7.7,0.9c1.2,3,4.1,5,7.5,5c2.8,0,5.3-1.4,6.7-3.6c2.6,0.2,5.2,0.4,7.9,0.6
		c2.2,2,4.6,4.7,5.7,7.9c0.1,0.2,0.2,0.4,0.3,0.6c-1.8,0.3-3.6,0.5-5.2,0.6l-2.5,0.2c-0.4,0-0.7,0.1-1,0.4l-2.1,1.3
		c-2.9,1.8-6.3,2.8-9.8,2.8c-2.5,0-4.9-0.5-7.2-1.4l-2.4-1c-0.4-0.1-0.8-0.2-1.1-0.2l-2.6,0.3c-1.5,0.1-2.3,0.2-2.4,0.2h-0.1
		c-9.3,1.1-17.3,3.9-23.3,6.6C127.2,198,127.5,197.3,127.9,196.5L127.9,196.5z M200.8,153.6c2.2-0.7,4.5-0.8,6.4-0.5l4,2.3l11,6.4
		l5.2,3c0,0,0,0,0,0.1c-0.5,1.1-0.9,2.2-1.3,3.3c-0.5,1.7-0.9,3.5-1,5.4h-23.6c-2-0.8-4-2.2-5.6-4.1c-1.5-1.8-2.7-4-3.3-6.5
		c-0.2-0.9-0.4-1.8-0.4-2.8c0.4-0.7,0.9-1.3,1.4-1.9C195.7,155.8,198.2,154.3,200.8,153.6L200.8,153.6z M231,120.8
		c1-1.2,2.1-2.2,3.5-3.1c0.3,0,0.6,0,0.9,0.1c4.4,0.5,7.9,2.7,10.2,5.4c1.1,1.3,1.9,2.7,2.4,4v23.3c-1.3,0.1-2.6,0.3-3.8,0.6
		c-1.7,0.4-3.4,1-4.9,1.8L237,149l-5.1-8.8l-4.4-7.7C227,129,228,124.5,231,120.8L231,120.8z M236.1,71c0.2,0.3,0.4,0.7,0.6,1.1
		c0.5,0.9,0.9,1.9,1.3,2.9c0.8,2,1.4,4.1,2,6.2c0.6,2.1,1,4.3,1.4,6.4c0.2,1.1,0.3,2.2,0.5,3.3l0.4,3.3l0.2-3.3
		c0-1.1,0.1-2.2,0.1-3.3c0-2.2,0-4.5-0.2-6.7c-0.2-2.3-0.4-4.5-0.9-6.8c-0.2-1.1-0.5-2.3-0.8-3.4c-0.1-0.4-0.2-0.8-0.4-1.1l4.4-5.2
		c1.8-2.2,4.1-3.2,5.4-3.5c1.3,0.3,3.5,1.4,5.4,3.5l4.4,5.2c-0.1,0.4-0.2,0.8-0.4,1.1c-0.3,1.1-0.6,2.3-0.8,3.4
		c-0.4,2.3-0.7,4.5-0.9,6.8c-0.2,2.2-0.2,4.5-0.2,6.7c0,1.1,0.1,2.2,0.1,3.3l0.2,3.3l0.4-3.3c0.2-1.1,0.3-2.2,0.5-3.3
		c0.4-2.2,0.8-4.3,1.4-6.4c0.5-2.1,1.2-4.2,2-6.2c0.4-1,0.8-2,1.3-2.9c0.2-0.4,0.4-0.7,0.6-1.1l7.1-3.6c0.8-0.4,1.5-0.7,2.4-1.1
		c-2.8,6-5.5,14-6.6,23.4c0,0.1,0,0.1,0,0.2c0,0.2,0,0.4-0.1,0.5l-0.4,4.3c0,0.4,0,0.8,0.2,1.2l1,2.4c0.9,2.3,1.4,4.7,1.4,7.2
		c0,2.8-0.6,5.6-1.8,8.1c-0.2,0-0.3,0-0.5,0c-1.1-0.6-2.3-1.2-3.6-1.7c-4.4-1.6-7.9-5.6-9.8-8.1c-0.8-11.6-1.8-23.2-3.2-34.9
		c-1.3,11.6-2.3,23.2-3.2,34.8c-1.8,2.5-5.4,6.6-9.8,8.2c-1.3,0.5-2.5,1-3.6,1.7c-0.1,0-0.3,0-0.4,0c-1.2-2.5-1.8-5.3-1.8-8.1
		c0-2.5,0.5-4.9,1.4-7.2l1-2.4c0.1-0.4,0.2-0.8,0.2-1.2l-0.3-2.6c-0.1-1.4-0.2-2.2-0.2-2.4v-0.1c-1.1-9.3-3.9-17.3-6.6-23.4
		c0.8,0.3,1.6,0.7,2.4,1.1L236.1,71L236.1,71z M306.4,158.1c0.5,0.6,1,1.2,1.4,1.8c-0.1,1-0.2,2-0.4,2.9c-0.6,2.6-1.8,4.8-3.3,6.5
		c-1.7,2-3.8,3.4-5.8,4.2H275c-0.1-1.8-0.5-3.6-1-5.4c-0.3-1.1-0.8-2.2-1.2-3.3c0,0,0-0.1-0.1-0.1l5.2-3l11-6.4l4.1-2.4
		c1.9-0.3,4.1-0.1,6.4,0.6C301.9,154.4,304.4,155.8,306.4,158.1L306.4,158.1z M259.2,194.3c-0.6,0.3-1.3,0.6-2,0.8
		c-2.3,0.8-4.7,1.2-7.1,1.2s-4.9-0.4-7.2-1.3c-1.3-0.5-2.5-1.1-3.7-1.8c-2.9-1.7-5.3-4.2-7.1-7.1c-0.6-1.1-1.2-2.2-1.6-3.4
		c-0.9-2.4-1.4-4.9-1.4-7.5s0.5-5,1.3-7.4c0.3-0.9,0.7-1.8,1.2-2.6c1.8-3.3,4.4-6,7.6-8c1.5-0.9,3.1-1.6,4.8-2.1
		c1.9-0.6,4-0.9,6-0.9s4,0.3,6,0.9c1.1,0.3,2.1,0.7,3.1,1.2c3.7,1.8,6.7,4.6,8.9,8.1c0.7,1.1,1.2,2.3,1.7,3.5
		c0.9,2.4,1.4,4.8,1.4,7.4v0c0,2.6-0.5,5.1-1.4,7.5c-0.5,1.2-1,2.3-1.6,3.4C265.9,189.8,262.8,192.6,259.2,194.3L259.2,194.3z
		 M252.7,270.5c-1.5,1.5-3.9,1.5-5.5,0l-4.5-4.5c-0.1-0.1-0.2-0.2-0.3-0.4c-1.1-1.4-1.1-3.3-0.1-4.7c0.1-0.1,0.2-0.3,0.3-0.4
		l4.5-4.5c1.5-1.5,3.9-1.5,5.5,0l4.5,4.5c0.1,0.1,0.2,0.3,0.3,0.4c1.1,1.4,1,3.3,0,4.7c-0.1,0.1-0.2,0.2-0.3,0.4L252.7,270.5z
		 M250,244.6c-1.6-2.1-4.2-5.2-7.7-7.4c-0.6-0.4-1.3-0.8-1.9-1.1c0.7-0.2,1.3-0.5,1.9-0.9c3.3-1.6,5.9-4.1,7.7-6.7
		c1.8,2.6,4.3,5,7.6,6.7c0.6,0.3,1.3,0.6,2,0.9c-0.7,0.4-1.4,0.7-2,1.2C254.2,239.5,251.6,242.5,250,244.6L250,244.6z M191.3,181.3
		c-0.7,1.2-1.4,2.4-1.9,3.8c-0.8-1.5-1.7-2.9-2.7-4.1c-2-2.4-4.2-4.3-5.9-5.5c1.7-1.2,3.9-3.2,5.9-5.6c1-1.2,1.9-2.5,2.6-4
		c0.5,1.3,1.1,2.6,1.8,3.7c1.6,2.5,3.6,4.4,5.7,5.9C194.8,176.9,192.8,178.9,191.3,181.3L191.3,181.3z M250,122.4
		c-1.1-1.6-2.4-3.1-4.1-4.4c-1.6-1.3-3.4-2.4-5.5-3.1c2.3-1.2,4.3-2.8,6-4.4c1.5-1.5,2.7-2.9,3.6-4.2c0.9,1.2,2.1,2.7,3.6,4.2
		c1.6,1.6,3.7,3.2,5.9,4.4c-2,0.8-3.9,1.8-5.4,3.1C252.4,119.3,251,120.8,250,122.4z M313.3,169.9c2,2.4,4.2,4.3,5.9,5.5
		c-1.7,1.3-4,3.2-5.9,5.6c-1,1.2-1.9,2.5-2.6,4c-0.5-1.3-1.1-2.6-1.8-3.7c-1.6-2.5-3.6-4.5-5.7-5.9c2.1-1.4,4.1-3.4,5.7-5.8
		c0.7-1.1,1.4-2.4,1.9-3.8C311.4,167.3,312.3,168.7,313.3,169.9L313.3,169.9z M272.4,132.6l-4.4,7.6L263,149l-2.2,3.8
		c-1.6-0.8-3.3-1.3-5-1.7c-1.3-0.3-2.5-0.5-3.8-0.6V127c0.5-1.3,1.4-2.7,2.4-4c2.3-2.7,5.9-4.9,10.3-5.4c0.2,0,0.5,0,0.8-0.1
		c1.4,0.9,2.6,2,3.6,3.2C272.1,124.6,273,129.1,272.4,132.6L272.4,132.6z M227.6,218.2l4.9-8.5l4.8-8.3l2-3.5c1.1,0.5,2.3,1,3.4,1.3
		c1.7,0.5,3.5,0.9,5.2,1v23.6c-1,2.4-2.9,4.9-5.6,6.7c-1.5,1-3.2,1.8-5.2,2.2c-0.8,0.2-1.7,0.3-2.6,0.4c-0.8-0.5-1.5-1.1-2.2-1.7
		C228.3,227.7,226.9,222.3,227.6,218.2L227.6,218.2z M284.5,127.5c-1.9,0.1-3.7,0.4-5.3,0.9c-0.9,0.3-1.7,0.6-2.5,1
		c-0.1,0-0.1,0.1-0.2,0.1c-0.1-2.3-0.7-4.7-1.8-7c-0.7-1.5-1.6-3-2.7-4.3c1.6,0.1,3.2,0,4.7-0.3c1-0.2,2-0.4,2.9-0.6
		c1-0.3,2-0.6,2.9-0.9c0.8-0.3,1.6-0.6,2.2-0.9c0.2,1.7,0.6,3.9,1.3,6.3c0.6,2,1.5,4,2.7,5.9C287.2,127.5,285.8,127.4,284.5,127.5
		L284.5,127.5z M215.4,115.6c0.7,0.3,1.4,0.6,2.3,0.9c0.9,0.3,1.9,0.6,2.9,0.9c0.9,0.2,1.9,0.4,2.9,0.6c1.5,0.2,3,0.3,4.6,0.2
		c-1.1,1.3-2,2.8-2.7,4.2c-1.1,2.4-1.7,4.8-1.9,7.1c0,0-0.1,0-0.1-0.1c-0.8-0.4-1.6-0.7-2.4-1c-1.7-0.5-3.4-0.9-5.3-1
		c-1.4-0.1-2.8,0-4.2,0.3c1.2-1.9,2.1-4,2.8-6C214.8,119.5,215.2,117.3,215.4,115.6L215.4,115.6z M216.7,223.4
		c1.9-0.2,3.6-0.6,5.3-1.2c0.5-0.2,1.1-0.4,1.6-0.7c0.1,1.4,0.4,2.9,0.8,4.4c0.5,1.7,1.3,3.5,2.4,5.1c0.4,0.6,0.9,1.3,1.4,1.9
		c-0.5,0-0.9,0-1.4,0c-0.8,0-1.6,0.1-2.4,0.2c-0.8,0.1-1.6,0.2-2.4,0.4c-2,0.4-3.8,1-5.3,1.6c-0.4,0.2-0.8,0.3-1.2,0.5
		c-0.4-3.1-1.4-8.1-4-12.2C213.2,223.5,215,223.5,216.7,223.4L216.7,223.4z M278.1,233.3c-0.8-0.2-1.6-0.3-2.4-0.4
		c-0.8-0.1-1.6-0.1-2.4-0.2c-0.4,0-0.9,0-1.3,0c0.5-0.6,0.9-1.2,1.3-1.8c1.1-1.6,1.8-3.3,2.4-5c0.5-1.5,0.8-3.1,0.9-4.5
		c0.5,0.2,1,0.5,1.5,0.7c1.6,0.6,3.4,1.1,5.3,1.2c1.7,0.2,3.5,0.1,5.3-0.2c-2.7,4.1-3.7,9.1-4,12.2c-0.4-0.2-0.8-0.3-1.2-0.5
		C281.9,234.3,280.1,233.7,278.1,233.3L278.1,233.3z"/>
	<path class="st2" d="M261,167.9c-1.2-1.7-2.8-3.2-4.7-4.2s-4-1.6-6.3-1.6s-4.5,0.6-6.4,1.6c-1.8,1-3.4,2.4-4.6,4.1
		c-1.5,2.1-2.3,4.7-2.3,7.5s0.9,5.5,2.4,7.6c1,1.4,2.3,2.6,3.8,3.6c2,1.3,4.4,2,7,2s4.9-0.7,6.9-2c1.5-0.9,2.8-2.2,3.9-3.6
		c1.5-2.2,2.4-4.8,2.4-7.7C263.3,172.6,262.4,170,261,167.9L261,167.9z M255.1,179c-0.5,0.7-1.1,1.3-1.8,1.7c-1,0.6-2.1,0.9-3.3,0.9
		s-2.4-0.4-3.3-1c-0.7-0.4-1.3-1-1.8-1.7c-0.7-1-1.1-2.3-1.1-3.6s0.4-2.5,1.1-3.6c0.6-0.8,1.3-1.5,2.2-2c0.9-0.5,1.9-0.8,3-0.8
		s2.1,0.3,3,0.7s1.6,1.1,2.2,2c0.7,1,1.1,2.2,1.1,3.6C256.3,176.7,255.9,178,255.1,179L255.1,179z"/>
	<path class="st2" d="M261.4,133.1c-2.1-0.6-4.3,0.7-4.9,2.8s0.7,4.3,2.8,4.9c1.5,0.4,3-0.1,4-1.2c0.4-0.5,0.7-1,0.9-1.6
		c0.3-1.2,0-2.5-0.7-3.4C263,133.9,262.3,133.4,261.4,133.1L261.4,133.1z"/>
	<path class="st2" d="M278.5,143.3c-0.8-0.1-1.7,0.1-2.4,0.6c-0.3,0.2-0.5,0.3-0.7,0.6c-1.6,1.6-1.6,4.1,0,5.7
		c0.3,0.3,0.6,0.5,1,0.7c1,0.5,2.1,0.6,3.1,0.2c0.6-0.2,1.1-0.5,1.5-0.9c1.6-1.6,1.6-4.1,0-5.7C280.3,143.8,279.4,143.4,278.5,143.3
		L278.5,143.3z"/>
	<path class="st2" d="M289,161.1c-0.5-0.1-1.1-0.1-1.6,0.1c-0.2,0.1-0.4,0.1-0.6,0.2c-1.7,0.8-2.7,2.8-2.2,4.7
		c0,0.1,0.1,0.3,0.2,0.4c0.3,0.8,0.9,1.5,1.6,1.9c0.9,0.6,2,0.8,3.2,0.5c0.3-0.1,0.6-0.2,0.8-0.3c1.2-0.6,2-1.9,2.1-3.2
		c0-0.4,0-0.9-0.1-1.4C291.9,162.5,290.5,161.4,289,161.1L289,161.1z"/>
	<path class="st2" d="M290.5,182.3c-0.3-0.2-0.7-0.4-1-0.5c-1.2-0.3-2.4,0-3.4,0.6c-0.6,0.5-1.1,1.1-1.4,1.9c0,0.1-0.1,0.2-0.1,0.3
		c-0.6,2.1,0.7,4.3,2.8,4.9h0c0.3,0.1,0.6,0.1,0.9,0.1c1.8,0.1,3.6-1.1,4-3c0.1-0.4,0.1-0.8,0.1-1.2
		C292.3,184.2,291.6,183,290.5,182.3L290.5,182.3z"/>
	<path class="st2" d="M279.3,199.7c-1.1-0.3-2.3-0.2-3.3,0.4c-0.2,0.1-0.5,0.3-0.7,0.5c-1.6,1.6-1.6,4.1,0,5.7
		c0.1,0.1,0.2,0.2,0.3,0.3c0.7,0.6,1.5,0.9,2.4,0.9c1.1,0,2.1-0.4,3-1.2c1.6-1.6,1.6-4.1,0-5.7C280.5,200.2,279.9,199.9,279.3,199.7
		L279.3,199.7z"/>
	<path class="st2" d="M262.7,210.6c-1-0.7-2.2-1-3.4-0.7c-0.7,0.2-1.4,0.6-1.9,1.1c-0.9,1-1.4,2.4-1,3.8c0.2,0.7,0.6,1.3,1,1.8
		c1,1,2.4,1.4,3.9,1.1c0.5-0.1,1-0.4,1.4-0.7c1.2-1,1.9-2.6,1.4-4.2C264,211.8,263.4,211.1,262.7,210.6L262.7,210.6z"/>
	<path class="st2" d="M237.2,216.9c0.4,0.3,0.9,0.6,1.5,0.8c1.4,0.4,2.8,0,3.8-1c0.5-0.5,0.9-1.1,1.1-1.9c0.4-1.4-0.1-2.9-1.1-3.9
		c-0.5-0.5-1.1-0.9-1.8-1c-1.3-0.3-2.6,0-3.5,0.8c-0.6,0.5-1.1,1.2-1.4,2.1C235.5,214.3,236,215.9,237.2,216.9L237.2,216.9z"/>
	<path class="st2" d="M222,207.5c0.9,0,1.7-0.3,2.4-0.8c0.1-0.1,0.3-0.2,0.4-0.3c1.6-1.6,1.6-4.1,0-5.7c-0.2-0.2-0.5-0.4-0.8-0.6
		c-1-0.6-2.2-0.7-3.3-0.4c-0.6,0.2-1.1,0.5-1.6,1c-1.6,1.6-1.6,4.1,0,5.7C219.9,207.1,220.9,207.5,222,207.5L222,207.5z"/>
	<path class="st2" d="M211.8,189.7c0.3,0,0.6,0,0.9-0.1c0,0,0.1,0,0.1,0c2.1-0.6,3.3-2.8,2.8-4.9c0-0.1-0.1-0.2-0.1-0.3
		c-0.3-0.8-0.8-1.4-1.4-1.9c-0.9-0.7-2.2-1-3.4-0.6c-0.4,0.1-0.7,0.3-1,0.5c-1.1,0.7-1.9,1.9-1.9,3.2c0,0.4,0,0.8,0.1,1.2
		C208.3,188.6,209.9,189.7,211.8,189.7L211.8,189.7z"/>
	<path class="st2" d="M209.8,168.6c0.3,0.1,0.5,0.2,0.8,0.3c1.1,0.3,2.2,0.1,3.1-0.5c0.7-0.4,1.3-1.1,1.6-1.9
		c0.1-0.1,0.1-0.3,0.2-0.4c0.5-1.9-0.4-3.8-2.1-4.6c-0.2-0.1-0.4-0.2-0.7-0.3c-0.6-0.1-1.1-0.2-1.6-0.1c-1.5,0.2-2.9,1.3-3.3,2.9
		c-0.1,0.5-0.1,0.9-0.1,1.4C207.8,166.8,208.6,168,209.8,168.6L209.8,168.6z"/>
	<path class="st2" d="M220.6,151.1c1,0.4,2.1,0.3,3.1-0.2c0.4-0.2,0.8-0.4,1.1-0.8c1.6-1.6,1.6-4.1,0-5.7c-0.2-0.2-0.5-0.4-0.8-0.6
		c-0.7-0.4-1.6-0.6-2.4-0.5c-0.9,0.1-1.8,0.4-2.4,1.1c-1.6,1.6-1.6,4.1,0,5.7C219.5,150.6,220.1,150.9,220.6,151.1L220.6,151.1z"/>
	<path class="st2" d="M236.7,139.6c1,1.1,2.5,1.7,4.1,1.3c2.1-0.6,3.4-2.8,2.8-4.9c-0.6-2.1-2.8-3.4-4.9-2.8
		c-0.9,0.2-1.7,0.8-2.2,1.6c-0.7,0.9-0.9,2.1-0.6,3.3C236.1,138.6,236.3,139.1,236.7,139.6L236.7,139.6z"/>
	<path class="st2" d="M281.8,120.3c-0.3-0.2-0.6-0.3-0.9-0.3c-0.9-0.1-1.9,0.3-2.4,1.2c-0.7,1.2-0.3,2.6,0.9,3.3c0,0,0,0,0,0
		c1.2,0.7,2.6,0.3,3.3-0.9C283.4,122.5,283,121,281.8,120.3L281.8,120.3z"/>
	<path class="st2" d="M304.2,146.9c1.2-0.7,1.6-2.2,0.9-3.3c-0.3-0.5-0.7-0.9-1.2-1.1c-0.7-0.2-1.4-0.2-2.1,0.2
		c-0.1,0.1-0.2,0.2-0.4,0.3c-0.9,0.8-1.1,2-0.5,3.1C301.6,147.2,303.1,147.6,304.2,146.9L304.2,146.9z"/>
	<path class="st2" d="M311.2,177.8c1.3,0,2.4-1.1,2.4-2.4s-1.1-2.4-2.4-2.4s-2.4,1.1-2.4,2.4S309.8,177.8,311.2,177.8z"/>
	<path class="st2" d="M304.2,203.9c-1.2-0.7-2.6-0.3-3.3,0.9c-0.6,1.1-0.3,2.6,0.8,3.3c0,0,0.1,0.1,0.1,0.1c0.6,0.3,1.2,0.4,1.8,0.3
		c0.6-0.1,1.2-0.5,1.5-1.1C305.8,206,305.4,204.5,304.2,203.9L304.2,203.9z"/>
	<path class="st2" d="M279.4,226.2c-1.2,0.7-1.6,2.2-0.9,3.3s2.2,1.6,3.3,0.9s1.6-2.2,0.9-3.3C282,226,280.6,225.6,279.4,226.2z"/>
	<path class="st2" d="M250,234.1c-1.3,0-2.4,1.1-2.4,2.4s1.1,2.4,2.4,2.4s2.4-1.1,2.4-2.4S251.4,234.1,250,234.1z"/>
	<path class="st2" d="M218.3,230.4c1.2,0.7,2.6,0.3,3.3-0.9c0.2-0.4,0.3-0.9,0.3-1.3c0,0,0-0.1,0-0.1c-0.1-0.8-0.5-1.5-1.2-1.9
		c-1.2-0.7-2.6-0.3-3.3,0.9C216.7,228.3,217.1,229.8,218.3,230.4L218.3,230.4z"/>
	<path class="st2" d="M195.9,203.9c-1.2,0.7-1.6,2.2-0.9,3.3c0.3,0.6,0.9,1,1.5,1.1c0.6,0.1,1.2,0.1,1.8-0.2c0,0,0.1-0.1,0.1-0.1
		c1.1-0.7,1.4-2.1,0.8-3.2C198.5,203.6,197.1,203.2,195.9,203.9L195.9,203.9z"/>
	<path class="st2" d="M188.9,173c-1.3,0-2.4,1.1-2.4,2.4s1.1,2.4,2.4,2.4s2.4-1.1,2.4-2.4S190.2,173,188.9,173z"/>
	<path class="st2" d="M195.9,146.9c1.2,0.7,2.6,0.3,3.3-0.9c0.6-1,0.4-2.3-0.5-3c-0.1-0.1-0.2-0.2-0.4-0.3c-0.7-0.4-1.4-0.4-2.1-0.1
		c-0.5,0.2-0.9,0.5-1.2,1C194.3,144.8,194.7,146.3,195.9,146.9L195.9,146.9z"/>
	<path class="st2" d="M220.6,124.6C220.6,124.6,220.7,124.6,220.6,124.6c1.2-0.7,1.6-2.2,0.9-3.3c-0.5-0.9-1.5-1.3-2.5-1.2
		c-0.3,0-0.6,0.1-0.8,0.3c-1.2,0.7-1.6,2.2-0.9,3.3C218,124.8,219.5,125.2,220.6,124.6z"/>
	<path class="st2" d="M250,111.8c-1.3,0-2.4,1.1-2.4,2.4s1.1,2.4,2.4,2.4s2.4-1.1,2.4-2.4C252.5,112.9,251.4,111.8,250,111.8z"/>
</g>
</svg>
