<?xml version="1.0" encoding="UTF-8"?><svg id="Layer_1" xmlns="http://www.w3.org/2000/svg" viewBox="0 0 465.49 222.89"><defs><style>.cls-1{fill:#473d2e;}</style></defs><path class="cls-1" d="m454.62,35.71c-2.31.16-4.82,1.16-5.9,3.32-1.29,2.59.75,5.31,2.49,7.07.49.5,1.31-.24.81-.74-1.54-1.53-3.39-3.77-2.28-6.06.91-1.85,3.39-2.43,5.24-2.53,4.33-.25,8.57,2.71,9.22,7.1.56,3.76-2.67,7.14-5.25,9.36-3.12,2.68-6.83,4.7-10.58,6.35-7.61,3.33-15.78,3.14-23.9,2.3-6.04-.62-12.04-1.64-18.09-2.17-1-2.1-2.39-4.04-4.11-5.72-4.89-4.79-11.81-7.12-18.56-7.39-4.14-.51-8.76.32-12.41,1.35-4.97,1.39-10.01,3.7-14.12,6.82-9.91,7.5-15.95,19.23-25.62,27.09-4.83,3.93-10.46,7.01-16.15,9.48-.38.16-.74.34-1.13.49-.37.16-.76.31-1.14.45-.78.29-1.55.62-2.37.89-.8.27-1.62.55-2.45.84-.84.28-1.7.49-2.55.75-3.46.95-7.17,1.78-11.11,2.24-7.86.95-16.69.8-25.93-1.35-4.62-1.07-9.33-2.63-14.01-4.78-1.17-.55-2.36-1.07-3.5-1.72-.58-.3-1.17-.61-1.76-.92-.58-.31-1.13-.67-1.7-.99-2.24-1.37-4.44-2.91-6.52-4.69-1.65-1.41-3.23-2.97-4.71-4.64,1.27-1.73,2.46-3.55,3.54-5.47,3.2-5.68,5.43-12.09,6.4-18.8.98-6.72.71-13.75-.94-20.51-.81-3.38-1.98-6.71-3.44-9.88-.73-1.6-1.54-3.13-2.42-4.67-.9-1.56-1.95-3.01-3.05-4.43-.16-.22-.35-.43-.53-.64,3.31-3.18,7.28-5.68,11.61-7.25,5.88-2.17,12.35-2.62,18.41-1.33,1.52.29,3,.76,4.45,1.26.72.29,1.44.55,2.14.87.35.16.71.31,1.05.48l1.03.52c2.66,1.41,5.01,3.27,6.91,5.54,1.9,2.26,3.33,4.87,4.21,7.63.88,2.76,1.23,5.66,1.04,8.49-.19,2.82-.92,5.58-2.08,8.09-.3.62-.56,1.27-.93,1.82-.18.29-.33.58-.52.85-.21.26-.41.53-.6.79-.11.13-.2.27-.31.4l-.33.37c-.23.24-.46.48-.68.72-.25.23-.49.45-.73.66l-.38.32-.39.3c-.26.19-.53.38-.79.57-.27.17-.56.33-.83.5-.55.36-1.16.58-1.73.87-1.2.47-2.43.86-3.67,1.03-.31.04-.63.11-.94.13-.31.02-.62.03-.93.05-.16,0-.31.02-.46.02h-.47c-.31-.03-.62-.04-.93-.06-.3-.03-.61-.08-.91-.12-.31-.06-.61-.07-.9-.15-.3-.08-.6-.15-.9-.22l-.44-.12-.42-.15c-.28-.1-.57-.2-.86-.3-.28-.09-.55-.24-.82-.37-.27-.13-.54-.25-.8-.38-.26-.15-.5-.29-.75-.44-.97-.62-1.81-1.39-2.53-2.26-1.39-1.76-2.21-3.89-2.35-6.02-.17-2.12.37-4.19,1.3-5.93.93-1.7,2.53-2.92,4.24-3.45,1.72-.53,3.52-.38,5.04.23.75.33,1.43.73,1.95,1.29.51.55.9,1.19,1.13,1.87.47,1.36.31,2.78-.23,3.89-.5,1.13-1.55,1.81-2.53,2-.99.19-1.94-.04-2.59-.49-.66-.44-.97-1.09-1.05-1.62-.04-.14-.04-.26-.04-.38.01-.12,0-.24.01-.34.05-.19.06-.37.11-.51.1-.25.16-.38.16-.38,0,0-.06.13-.17.38-.07.12-.08.3-.14.5-.03.11,0,.23-.01.35-.01.12-.01.25.01.39.07.54.36,1.24,1.04,1.73.66.5,1.64.79,2.72.62,1.06-.16,2.23-.86,2.83-2.07.63-1.18.87-2.72.4-4.23-.22-.76-.61-1.49-1.18-2.14-.55-.65-1.32-1.14-2.12-1.52-1.62-.73-3.62-.98-5.57-.44-1.95.51-3.82,1.83-4.97,3.75-.53.95-1.02,1.96-1.3,3.09-.29,1.1-.45,2.27-.39,3.47.06,2.39.9,4.85,2.43,6.93.8,1.04,1.75,1.96,2.85,2.72.28.18.57.36.84.54.3.15.59.3.88.46.3.14.59.32.9.43.31.12.63.24.94.37l.47.19.49.13c.33.09.66.19.98.28.33.11.68.13,1.02.2.34.06.68.13,1.03.17.34.02.7.05,1.05.07l.53.04c.18,0,.35,0,.53,0,.36,0,.71-.01,1.06-.02.36-.02.71-.07,1.06-.12,1.43-.14,2.84-.53,4.22-1.03.67-.3,1.38-.55,2.02-.93.32-.18.66-.36.98-.55.32-.2.62-.42.93-.63l.47-.32.43-.37c.29-.24.58-.49.87-.74.27-.27.54-.54.8-.82l.4-.42c.14-.14.24-.3.38-.44.23-.3.48-.61.73-.91.23-.31.42-.65.64-.97.46-.65.77-1.34,1.13-2.02,1.38-2.75,2.3-5.82,2.61-9.01.31-3.19.02-6.49-.9-9.67-.92-3.18-2.46-6.23-4.58-8.9-2.11-2.68-4.81-4.94-7.82-6.64l-1.13-.61c-.38-.21-.77-.37-1.15-.56-.77-.39-1.57-.69-2.36-1.03-1.61-.61-3.24-1.17-4.94-1.55-6.76-1.62-14.07-1.3-20.8.99-4.96,1.68-9.58,4.43-13.45,7.99-3.88-3.57-8.5-6.32-13.45-7.99-6.73-2.3-14.05-2.61-20.8-.99-1.7.38-3.34.94-4.95,1.55-.79.34-1.6.64-2.36,1.03-.37.19-.78.36-1.15.56l-1.11.61c-3.03,1.7-5.72,3.97-7.84,6.64-2.11,2.67-3.66,5.72-4.57,8.9-.92,3.18-1.21,6.48-.89,9.67.3,3.19,1.23,6.26,2.6,9.01.37.68.68,1.38,1.13,2.02.21.32.41.66.65.97.24.3.48.6.72.91.12.15.24.3.37.44l.41.42c.26.28.54.55.8.82.3.24.59.49.88.74l.44.37.46.32c.31.21.63.43.93.63.33.19.66.38.99.55.64.38,1.35.63,2.01.93,1.38.5,2.79.89,4.22,1.03.35.04.7.1,1.06.12.36,0,.72.02,1.07.02.18,0,.35,0,.53,0l.52-.04c.35-.03.7-.05,1.05-.07.35-.04.69-.12,1.02-.17.34-.07.69-.09,1.01-.2.34-.09.67-.19.99-.28l.49-.13.47-.19c.31-.12.63-.24.94-.37.31-.12.6-.3.9-.43.3-.16.59-.31.89-.46.28-.18.56-.37.84-.54,1.1-.76,2.06-1.68,2.84-2.72,1.54-2.08,2.38-4.54,2.44-6.93.06-1.2-.11-2.37-.39-3.47-.26-1.13-.75-2.14-1.29-3.09-1.15-1.93-3.02-3.25-4.97-3.75-1.96-.53-3.95-.28-5.58.44-.79.38-1.57.87-2.12,1.52-.56.64-.96,1.38-1.19,2.14-.46,1.51-.22,3.06.41,4.23.6,1.21,1.77,1.91,2.82,2.07,1.08.16,2.07-.12,2.72-.62.68-.49.98-1.18,1.04-1.73.03-.14.03-.27.02-.39,0-.12.01-.24-.02-.35-.06-.19-.07-.37-.14-.5-.12-.25-.18-.38-.18-.38,0,0,.06.13.17.38.06.14.07.31.11.51.03.1,0,.22,0,.34s0,.24-.04.38c-.08.53-.39,1.18-1.05,1.62-.63.45-1.59.68-2.59.49-.99-.19-2.03-.87-2.53-2-.54-1.1-.7-2.53-.23-3.89.23-.68.61-1.32,1.13-1.87.52-.56,1.19-.96,1.96-1.29,1.5-.62,3.31-.76,5.03-.23,1.71.52,3.31,1.74,4.24,3.45.94,1.74,1.48,3.81,1.31,5.93-.12,2.12-.94,4.25-2.34,6.02-.72.86-1.57,1.63-2.54,2.26-.24.15-.49.29-.74.44-.27.13-.54.25-.82.38-.27.12-.53.28-.82.37-.27.1-.55.2-.84.3l-.43.15-.44.12c-.29.07-.59.14-.88.22-.3.08-.61.09-.91.15-.31.03-.6.09-.91.12-.31.01-.62.03-.93.04h-.46c-.16,0-.31,0-.47,0-.31-.02-.61-.03-.93-.05-.31-.02-.63-.09-.93-.13-1.26-.17-2.48-.56-3.67-1.03-.58-.29-1.19-.51-1.73-.87-.28-.17-.56-.33-.84-.5-.26-.19-.53-.38-.79-.57l-.39-.3-.37-.32c-.24-.21-.49-.43-.74-.66-.23-.24-.45-.48-.67-.72l-.34-.37c-.12-.13-.2-.26-.31-.4-.2-.26-.4-.53-.6-.79-.19-.27-.35-.57-.53-.85-.37-.55-.63-1.2-.93-1.82-1.15-2.51-1.9-5.26-2.08-8.09-.19-2.83.16-5.73,1.04-8.49.89-2.76,2.31-5.38,4.21-7.63,1.9-2.27,4.25-4.13,6.91-5.54l1.03-.52c.34-.17.69-.32,1.05-.48.69-.32,1.43-.58,2.14-.87,1.46-.5,2.94-.97,4.46-1.26,6.06-1.29,12.53-.84,18.41,1.33,4.32,1.57,8.3,4.07,11.61,7.25-.18.21-.36.43-.54.64-1.09,1.41-2.15,2.87-3.03,4.43-.89,1.54-1.71,3.07-2.44,4.67-1.46,3.18-2.61,6.5-3.44,9.88-1.64,6.76-1.92,13.8-.94,20.51.98,6.72,3.21,13.13,6.4,18.8,1.08,1.91,2.27,3.74,3.54,5.47-1.48,1.67-3.06,3.22-4.71,4.64-2.08,1.77-4.28,3.32-6.51,4.69-.57.33-1.12.68-1.7.99-.59.31-1.16.62-1.74.92-1.15.64-2.34,1.17-3.51,1.72-4.68,2.15-9.39,3.71-14.01,4.78-9.26,2.15-18.07,2.3-25.94,1.35-3.94-.46-7.64-1.29-11.11-2.24-.87-.26-1.73-.47-2.56-.75-.83-.29-1.65-.56-2.46-.84-.82-.27-1.58-.6-2.37-.89-.38-.15-.76-.3-1.15-.45-.38-.15-.74-.32-1.11-.49-5.69-2.47-11.32-5.55-16.15-9.48-9.69-7.86-15.73-19.6-25.64-27.09-4.11-3.12-9.15-5.43-14.1-6.82-3.67-1.04-8.27-1.86-12.42-1.35-6.75.26-13.66,2.6-18.56,7.39-1.71,1.68-3.1,3.62-4.1,5.72-6.04.53-12.06,1.55-18.1,2.17-8.12.84-16.29,1.03-23.9-2.3-3.76-1.65-7.47-3.67-10.59-6.35-2.58-2.22-5.81-5.6-5.25-9.36.66-4.39,4.89-7.35,9.22-7.1,1.85.1,4.34.69,5.24,2.53,1.13,2.28-.74,4.53-2.27,6.06-.5.5.32,1.23.81.74,1.73-1.76,3.78-4.49,2.49-7.07-1.08-2.16-3.59-3.16-5.9-3.32-5.38-.35-11.72,3.86-10.77,9.9.9,5.78,6.57,9.9,11.26,12.65,5.28,3.09,10.78,5.15,16.91,5.56,9.1.61,18.13-1.13,27.16-2.13.98-.11,1.97-.21,2.97-.3-1.25,3.4-1.5,7.15-.53,10.85,2.21,8.42,8.93,15.93,16.73,19.68,6.72,3.23,17.46,3.99,21.57-3.8,3.44-6.53,0-14.93-4.7-19.89-5.86-6.17-14.86-8.6-23.12-8.85-2.19-.07-4.38,0-6.57.12,2.7-4.66,7.61-8.03,12.78-9.65,8.55-2.7,18.43-1.68,26.16,2.86,13.42,7.88,20.96,22.44,32.59,32.39,3.99,3.42,8.98,6.86,15.08,9.9.39.19.77.4,1.16.57.39.18.79.35,1.2.53.79.35,1.6.74,2.45,1.07.84.32,1.7.66,2.56,1,.86.33,1.77.6,2.67.91,3.63,1.17,7.54,2.2,11.73,2.84,8.36,1.3,17.85,1.39,27.86-.76,5-1.07,10.1-2.71,15.17-4.98,1.27-.58,2.55-1.13,3.8-1.82.62-.33,1.26-.66,1.89-.99.64-.33,1.27-.74,1.9-1.1,2.52-1.52,4.98-3.25,7.31-5.24,1.62-1.39,3.18-2.91,4.67-4.53,1.48,1.62,3.04,3.13,4.68,4.53,2.32,1.99,4.78,3.72,7.3,5.24.64.36,1.26.76,1.9,1.1.63.33,1.26.66,1.89.99,1.25.68,2.53,1.24,3.79,1.82,5.08,2.27,10.19,3.91,15.19,4.98,10.01,2.15,19.5,2.06,27.85.76,4.19-.64,8.1-1.67,11.74-2.84.89-.31,1.79-.58,2.67-.91.86-.34,1.72-.68,2.55-1,.85-.32,1.65-.72,2.45-1.07.41-.18.8-.35,1.19-.53.41-.18.78-.39,1.16-.57,6.1-3.04,11.09-6.48,15.09-9.9,11.62-9.95,19.17-24.51,32.59-32.39,7.73-4.54,17.6-5.55,26.15-2.86,5.17,1.63,10.08,4.99,12.78,9.65-2.18-.13-4.36-.19-6.57-.12-8.27.24-17.27,2.68-23.12,8.85-4.71,4.96-8.15,13.36-4.7,19.89,4.11,7.79,14.86,7.03,21.57,3.8,7.8-3.75,14.51-11.26,16.73-19.68.97-3.71.71-7.45-.53-10.85,1,.1,1.99.19,2.99.3,9.02,1,18.04,2.74,27.15,2.13,6.13-.41,11.62-2.47,16.9-5.56,4.7-2.74,10.38-6.87,11.27-12.65.95-6.04-5.38-10.25-10.77-9.9Zm-372.22,28.35c7.18,3.34,14.48,11.11,12.96,19.78-.76,4.29-4.1,6.96-8.27,7.84-4.62.98-9.41-.55-13.36-2.96-7.43-4.52-14.61-13.04-14.07-22.25.11-1.9.56-3.66,1.28-5.3,7.29-.52,14.77-.23,21.45,2.89Zm148.09,5.53c-2.88-5.05-4.95-10.76-5.9-16.79-.96-6.01-.8-12.32.58-18.45.68-3.05,1.66-6.07,2.95-8.98.63-1.45,1.35-2.88,2.11-4.26.73-1.35,1.61-2.61,2.52-3.85.9,1.23,1.79,2.5,2.52,3.85.75,1.37,1.48,2.81,2.11,4.26,1.27,2.91,2.26,5.92,2.94,8.98,1.38,6.13,1.54,12.44.58,18.45-.95,6.03-3.01,11.74-5.89,16.79-.71,1.23-1.47,2.42-2.26,3.57-.8-1.15-1.56-2.34-2.26-3.57Zm161.28,19.14c-3.96,2.4-8.74,3.93-13.37,2.96-4.18-.88-7.51-3.55-8.27-7.84-1.52-8.67,5.79-16.45,12.97-19.78,6.67-3.11,14.15-3.4,21.44-2.89.72,1.64,1.17,3.41,1.29,5.3.53,9.21-6.63,17.73-14.06,22.25Z"/></svg>